<?xml version="1.0" encoding="utf-8"?>
<svg xmlns="http://www.w3.org/2000/svg" viewBox="10 10 80 80" width="80px" height="80px">
  <path d="M 10 18 C 10 13.582 13.582 10 18 10 L 82 10 C 86.418 10 90 13.582 90 18 L 90 82 C 90 86.418 86.418 90 82 90 L 18 90 C 13.582 90 10 86.418 10 82 L 10 18 Z M 18 14 C 15.789 14 14 15.789 14 18 L 14 26 L 32 26 L 32 14 L 18 14 Z M 36 14 L 36 26 L 64 26 L 64 14 L 36 14 Z M 68 14 L 68 26 L 86 26 L 86 18 C 86 15.789 84.211 14 82 14 L 68 14 Z M 86 30 L 76 30 L 76 48 L 86 48 L 86 30 Z M 86 52 L 59 52 L 59 70 L 86 70 L 86 52 Z M 86 74 L 72 74 L 72 86 L 82 86 C 84.211 86 86 84.211 86 82 L 86 74 Z M 68.522 86.196 L 68.587 74.087 L 40 74 L 40 86 L 68.522 86.196 Z M 36 86 L 36 74 L 14 74 L 14 82 C 14 84.211 15.789 86 18 86 L 36 86 Z M 14 70 L 23 70 L 23 52 L 14 52 L 14 70 Z M 14 48 L 40.37 48.022 L 40.304 29.8 L 14 30 L 14 48 Z M 44 30 L 44 48 L 72 48 L 72 30 L 44 30 Z M 26.488 51.999 L 26.49 69.933 L 55 70 L 55 52 L 26.488 51.999 Z" fill-rule="evenodd" transform="matrix(1, 0, 0, 1, 3.552713678800501e-15, 0)" style="stroke-width: 0px; stroke-miterlimit: 1;"/>
</svg>